<?xml version="1.0" standalone="no"?>
<!DOCTYPE svg PUBLIC "-//W3C//DTD SVG 1.1//EN" "http://www.w3.org/Graphics/SVG/1.1/DTD/svg11.dtd" >
<svg xmlns="http://www.w3.org/2000/svg" xmlns:xlink="http://www.w3.org/1999/xlink" version="1.1" viewBox="-10 0 1034 1024">
  <g transform="matrix(1 0 0 -1 0 819)">
   <path fill="#fa412d"
d="M824 611q29 -29 29 -70v-484q0 -40 -29 -70q-30 -30 -70 -30h-484q-40 0 -70 30q-29 30 -29 70v484q0 40 29 69q30 30 70 30h484q41 0 70 -29v0zM316 250q4 -4 9 -4h374q5 0 9 4t4 10v77q0 7 -4 11q-4 3 -9 3h-374q-5 0 -9 -3q-4 -4 -4 -11v-77q0 -6 4 -10v0z" />
  </g>

</svg>
