<?xml version="1.0" standalone="no"?>
<!DOCTYPE svg PUBLIC "-//W3C//DTD SVG 1.1//EN" "http://www.w3.org/Graphics/SVG/1.1/DTD/svg11.dtd" >
<svg xmlns="http://www.w3.org/2000/svg" xmlns:xlink="http://www.w3.org/1999/xlink" version="1.1" viewBox="-10 0 1034 1024">
  <g transform="matrix(1 0 0 -1 0 819)">
   <path fill="#e3aa24"
d="M390 270l-300 -355l26 -26l328 328l-54 53v0zM338 332l-26 80l-156 -212l11 -37l171 169v0zM925 699q-23 5 -49 7.5t-53 2.5q-54 0 -105 -11q-51 -10 -98 -29.5t-89 -47.5t-78 -63v0l-90 -91q-14 -14 -7 -41t25.5 -59t43.5 -64q26 -31 49 -55q15 -15 31.5 -29t34.5 -27
l1 -1l154 176l29 -29l-366 -427l22 -20l248 248q22 -9 39 -10.5t27 8.5l91 90q34 36 62 78q28 43 47.5 90t29.5 98t10 105q0 27 -2.5 53t-7.5 51l1 -3v0zM512 424q-8 16 -19.5 27.5t-9.5 26.5q63 62 114 96q52 35 95.5 52.5t80.5 22.5t71 9q-49 -21 -94 -47
q-45 -25 -86.5 -54t-79.5 -63q-37 -33 -71 -69z" />
  </g>

</svg>
