<?xml version="1.0" standalone="no"?>
<!DOCTYPE svg PUBLIC "-//W3C//DTD SVG 1.1//EN" "http://www.w3.org/Graphics/SVG/1.1/DTD/svg11.dtd" >
<svg xmlns="http://www.w3.org/2000/svg" xmlns:xlink="http://www.w3.org/1999/xlink" version="1.1" viewBox="-10 0 1034 1024">
  <g transform="matrix(1 0 0 -1 0 819)">
   <path fill="#f7c631"
d="M891 387l72 58l-93 6q-44 3 -75 35.5t-31 77.5q0 8 1 15t3 14v0l22 90l-77 -51q-13 -8 -28.5 -13t-32.5 -5q-36 0 -64.5 20t-41.5 52v1l-34 85l-34 -85q-12 -32 -41 -52t-65 -20q-17 0 -32.5 4.5t-28.5 13.5v-1l-77 51l22 -90q2 -7 3 -14t1 -15q0 -45 -31 -77.5
t-75 -35.5v0l-93 -6l72 -58q19 -16 30 -39t11 -49q0 -27 -11 -49.5t-30 -38.5v0l-72 -59l93 -5q44 -3 75 -36t31 -78q0 -7 -1 -14.5t-3 -14.5v1l-22 -90l77 49q13 9 28.5 13.5t32.5 4.5q36 0 64.5 -20t41.5 -51v-1l34 -85l34 85q13 32 41.5 52t64.5 20q17 0 32.5 -4.5
t28.5 -13.5v0l77 -49l-22 90q-2 6 -3 13.5t-1 14.5q0 45 31 78t76 36v0l92 5l-71 59q-19 16 -30 38.5t-11 49.5q0 26 11 49t29 38v1v0zM512 14q-59 0 -111 22t-90.5 61t-61.5 91q-22 52 -22 111t22 111q23 52 61.5 90.5t90.5 60.5q52 23 111 23t111 -23q52 -22 90.5 -60.5
t61.5 -90.5q22 -52 22 -111v0q0 -59 -22 -111q-23 -52 -61.5 -91t-90.5 -61t-111 -22v0v0zM756 314q3 -51 -13 -96q-17 -46 -48 -81t-74 -57t-94 -25q-50 -4 -96 13q-46 16 -81 47t-57 75q-22 43 -25 93q-3 51 13 97q17 45 48 80.5t74 57.5q43 21 94 25q50 3 96 -14
q46 -16 81 -47t57 -74q22 -44 25 -94v0z" />
  </g>

</svg>
